<mxfile host="app.diagrams.net" modified="2023-09-16T17:36:04.907Z" agent="Mozilla/5.0 (Windows NT 10.0; Win64; x64) AppleWebKit/537.36 (KHTML, like Gecko) Chrome/116.0.0.0 Safari/537.36 Edg/116.0.1938.81" etag="MvGyra7WD_MpKxbOQczU" version="21.7.5" type="google">
  <diagram name="Page-1" id="wzsIN67b9Lm8zGMweF9z">
    <mxGraphModel grid="1" page="1" gridSize="10" guides="1" tooltips="1" connect="1" arrows="1" fold="1" pageScale="1" pageWidth="850" pageHeight="1100" math="0" shadow="0">
      <root>
        <mxCell id="0" />
        <mxCell id="1" parent="0" />
        <mxCell id="gwOgM0LgX5GfEIh14Njk-22" style="edgeStyle=orthogonalEdgeStyle;rounded=0;orthogonalLoop=1;jettySize=auto;html=1;exitX=0.5;exitY=1;exitDx=0;exitDy=0;entryX=0;entryY=0.5;entryDx=0;entryDy=0;endArrow=none;endFill=0;" edge="1" parent="1" source="gwOgM0LgX5GfEIh14Njk-36" target="gwOgM0LgX5GfEIh14Njk-4">
          <mxGeometry relative="1" as="geometry">
            <mxPoint x="220" y="330" as="sourcePoint" />
          </mxGeometry>
        </mxCell>
        <mxCell id="gwOgM0LgX5GfEIh14Njk-23" style="edgeStyle=orthogonalEdgeStyle;rounded=0;orthogonalLoop=1;jettySize=auto;html=1;exitX=0.2;exitY=1;exitDx=0;exitDy=0;exitPerimeter=0;endArrow=none;endFill=0;" edge="1" parent="1" source="gwOgM0LgX5GfEIh14Njk-36" target="gwOgM0LgX5GfEIh14Njk-7">
          <mxGeometry relative="1" as="geometry">
            <mxPoint x="160" y="330" as="sourcePoint" />
          </mxGeometry>
        </mxCell>
        <mxCell id="gwOgM0LgX5GfEIh14Njk-24" style="edgeStyle=orthogonalEdgeStyle;rounded=0;orthogonalLoop=1;jettySize=auto;html=1;exitX=0.4;exitY=1;exitDx=0;exitDy=0;entryX=0;entryY=0;entryDx=0;entryDy=0;exitPerimeter=0;endArrow=none;endFill=0;" edge="1" parent="1" source="gwOgM0LgX5GfEIh14Njk-36" target="gwOgM0LgX5GfEIh14Njk-5">
          <mxGeometry relative="1" as="geometry">
            <mxPoint x="190" y="330" as="sourcePoint" />
          </mxGeometry>
        </mxCell>
        <mxCell id="gwOgM0LgX5GfEIh14Njk-2" value="Reg_no" style="ellipse;whiteSpace=wrap;html=1;" vertex="1" parent="1">
          <mxGeometry x="240" y="70" width="100" height="60" as="geometry" />
        </mxCell>
        <mxCell id="gwOgM0LgX5GfEIh14Njk-221" style="edgeStyle=orthogonalEdgeStyle;shape=connector;rounded=0;orthogonalLoop=1;jettySize=auto;html=1;exitX=0.5;exitY=1;exitDx=0;exitDy=0;entryX=0;entryY=0.25;entryDx=0;entryDy=0;labelBackgroundColor=default;strokeColor=default;fontFamily=Helvetica;fontSize=11;fontColor=default;endArrow=none;endFill=0;" edge="1" parent="1" source="gwOgM0LgX5GfEIh14Njk-3" target="gwOgM0LgX5GfEIh14Njk-36">
          <mxGeometry relative="1" as="geometry">
            <Array as="points">
              <mxPoint x="110" y="110" />
              <mxPoint x="110" y="290" />
            </Array>
          </mxGeometry>
        </mxCell>
        <mxCell id="gwOgM0LgX5GfEIh14Njk-3" value="Payable" style="ellipse;whiteSpace=wrap;html=1;" vertex="1" parent="1">
          <mxGeometry x="20" y="50" width="100" height="60" as="geometry" />
        </mxCell>
        <mxCell id="gwOgM0LgX5GfEIh14Njk-4" value="Email" style="ellipse;whiteSpace=wrap;html=1;" vertex="1" parent="1">
          <mxGeometry x="340" y="350" width="100" height="60" as="geometry" />
        </mxCell>
        <mxCell id="gwOgM0LgX5GfEIh14Njk-5" value="GPA" style="ellipse;whiteSpace=wrap;html=1;" vertex="1" parent="1">
          <mxGeometry x="140" y="420" width="100" height="60" as="geometry" />
        </mxCell>
        <mxCell id="gwOgM0LgX5GfEIh14Njk-7" value="Level" style="ellipse;whiteSpace=wrap;html=1;" vertex="1" parent="1">
          <mxGeometry x="30" y="390" width="100" height="60" as="geometry" />
        </mxCell>
        <mxCell id="gwOgM0LgX5GfEIh14Njk-28" style="edgeStyle=orthogonalEdgeStyle;rounded=0;orthogonalLoop=1;jettySize=auto;html=1;exitX=0.5;exitY=0;exitDx=0;exitDy=0;entryX=0.5;entryY=1;entryDx=0;entryDy=0;endArrow=none;endFill=0;" edge="1" parent="1" source="gwOgM0LgX5GfEIh14Njk-125" target="gwOgM0LgX5GfEIh14Njk-13">
          <mxGeometry relative="1" as="geometry">
            <mxPoint x="47.5" y="240" as="sourcePoint" />
          </mxGeometry>
        </mxCell>
        <mxCell id="gwOgM0LgX5GfEIh14Njk-29" style="edgeStyle=orthogonalEdgeStyle;rounded=0;orthogonalLoop=1;jettySize=auto;html=1;exitX=0;exitY=0.5;exitDx=0;exitDy=0;entryX=1;entryY=0.5;entryDx=0;entryDy=0;endArrow=none;endFill=0;" edge="1" parent="1" source="gwOgM0LgX5GfEIh14Njk-125" target="gwOgM0LgX5GfEIh14Njk-14">
          <mxGeometry relative="1" as="geometry">
            <mxPoint x="-4.999999999999545" y="275" as="sourcePoint" />
          </mxGeometry>
        </mxCell>
        <mxCell id="gwOgM0LgX5GfEIh14Njk-13" value="First" style="ellipse;whiteSpace=wrap;html=1;align=center;" vertex="1" parent="1">
          <mxGeometry x="-110" y="80" width="100" height="40" as="geometry" />
        </mxCell>
        <mxCell id="gwOgM0LgX5GfEIh14Njk-14" value="Middle" style="ellipse;whiteSpace=wrap;html=1;align=center;" vertex="1" parent="1">
          <mxGeometry x="-240" y="160" width="100" height="40" as="geometry" />
        </mxCell>
        <mxCell id="gwOgM0LgX5GfEIh14Njk-128" style="edgeStyle=orthogonalEdgeStyle;shape=connector;rounded=0;orthogonalLoop=1;jettySize=auto;html=1;exitX=1;exitY=0.5;exitDx=0;exitDy=0;entryX=0.5;entryY=1;entryDx=0;entryDy=0;labelBackgroundColor=default;strokeColor=default;fontFamily=Helvetica;fontSize=11;fontColor=default;endArrow=none;endFill=0;" edge="1" parent="1" source="gwOgM0LgX5GfEIh14Njk-15" target="gwOgM0LgX5GfEIh14Njk-125">
          <mxGeometry relative="1" as="geometry" />
        </mxCell>
        <mxCell id="gwOgM0LgX5GfEIh14Njk-15" value="Last" style="ellipse;whiteSpace=wrap;html=1;align=center;" vertex="1" parent="1">
          <mxGeometry x="-190" y="250" width="100" height="40" as="geometry" />
        </mxCell>
        <mxCell id="gwOgM0LgX5GfEIh14Njk-16" value="&lt;span style=&quot;border-bottom: 1px dotted&quot;&gt;Last_login&lt;/span&gt;" style="ellipse;whiteSpace=wrap;html=1;align=center;" vertex="1" parent="1">
          <mxGeometry x="325" y="120" width="100" height="40" as="geometry" />
        </mxCell>
        <mxCell id="gwOgM0LgX5GfEIh14Njk-17" value="&lt;span style=&quot;border-bottom: 1px dotted&quot;&gt;Name&lt;/span&gt;" style="ellipse;whiteSpace=wrap;html=1;align=center;" vertex="1" parent="1">
          <mxGeometry x="130" y="140" width="100" height="40" as="geometry" />
        </mxCell>
        <mxCell id="gwOgM0LgX5GfEIh14Njk-18" value="&lt;span style=&quot;border-bottom: 1px dotted&quot;&gt;Country&lt;/span&gt;" style="ellipse;whiteSpace=wrap;html=1;align=center;" vertex="1" parent="1">
          <mxGeometry x="470" y="260" width="100" height="40" as="geometry" />
        </mxCell>
        <mxCell id="gwOgM0LgX5GfEIh14Njk-50" style="edgeStyle=orthogonalEdgeStyle;rounded=0;orthogonalLoop=1;jettySize=auto;html=1;entryX=0;entryY=0.5;entryDx=0;entryDy=0;endArrow=none;endFill=0;" edge="1" parent="1" source="gwOgM0LgX5GfEIh14Njk-36" target="gwOgM0LgX5GfEIh14Njk-18">
          <mxGeometry relative="1" as="geometry" />
        </mxCell>
        <mxCell id="gwOgM0LgX5GfEIh14Njk-55" style="edgeStyle=orthogonalEdgeStyle;rounded=0;orthogonalLoop=1;jettySize=auto;html=1;exitX=0.5;exitY=0;exitDx=0;exitDy=0;entryX=0.377;entryY=0.983;entryDx=0;entryDy=0;entryPerimeter=0;endArrow=none;endFill=0;" edge="1" parent="1" source="gwOgM0LgX5GfEIh14Njk-36" target="gwOgM0LgX5GfEIh14Njk-2">
          <mxGeometry relative="1" as="geometry" />
        </mxCell>
        <mxCell id="gwOgM0LgX5GfEIh14Njk-56" style="edgeStyle=orthogonalEdgeStyle;rounded=0;orthogonalLoop=1;jettySize=auto;html=1;exitX=0.75;exitY=0;exitDx=0;exitDy=0;entryX=0;entryY=1;entryDx=0;entryDy=0;endArrow=none;endFill=0;" edge="1" parent="1" source="gwOgM0LgX5GfEIh14Njk-36" target="gwOgM0LgX5GfEIh14Njk-16">
          <mxGeometry relative="1" as="geometry" />
        </mxCell>
        <mxCell id="gwOgM0LgX5GfEIh14Njk-130" style="edgeStyle=orthogonalEdgeStyle;shape=connector;rounded=0;orthogonalLoop=1;jettySize=auto;html=1;exitX=0;exitY=0;exitDx=0;exitDy=0;labelBackgroundColor=default;strokeColor=default;fontFamily=Helvetica;fontSize=11;fontColor=default;endArrow=none;endFill=0;" edge="1" parent="1" source="gwOgM0LgX5GfEIh14Njk-36" target="gwOgM0LgX5GfEIh14Njk-17">
          <mxGeometry relative="1" as="geometry" />
        </mxCell>
        <mxCell id="gwOgM0LgX5GfEIh14Njk-222" style="edgeStyle=orthogonalEdgeStyle;shape=connector;rounded=0;orthogonalLoop=1;jettySize=auto;html=1;exitX=1;exitY=0.25;exitDx=0;exitDy=0;entryX=0.25;entryY=1;entryDx=0;entryDy=0;labelBackgroundColor=default;strokeColor=default;fontFamily=Helvetica;fontSize=11;fontColor=default;endArrow=none;endFill=0;" edge="1" parent="1" source="gwOgM0LgX5GfEIh14Njk-36" target="gwOgM0LgX5GfEIh14Njk-192">
          <mxGeometry relative="1" as="geometry">
            <Array as="points">
              <mxPoint x="280" y="230" />
              <mxPoint x="550" y="230" />
              <mxPoint x="550" y="-90" />
              <mxPoint x="630" y="-90" />
              <mxPoint x="630" y="-120" />
            </Array>
          </mxGeometry>
        </mxCell>
        <mxCell id="gwOgM0LgX5GfEIh14Njk-36" value="STUDENT" style="whiteSpace=wrap;html=1;align=center;" vertex="1" parent="1">
          <mxGeometry x="180" y="280" width="100" height="40" as="geometry" />
        </mxCell>
        <mxCell id="gwOgM0LgX5GfEIh14Njk-72" style="edgeStyle=orthogonalEdgeStyle;shape=connector;rounded=0;orthogonalLoop=1;jettySize=auto;html=1;exitX=1;exitY=0.5;exitDx=0;exitDy=0;entryX=0;entryY=0.5;entryDx=0;entryDy=0;labelBackgroundColor=default;strokeColor=default;fontFamily=Helvetica;fontSize=11;fontColor=default;endArrow=none;endFill=0;" edge="1" parent="1" source="gwOgM0LgX5GfEIh14Njk-58" target="gwOgM0LgX5GfEIh14Njk-61">
          <mxGeometry relative="1" as="geometry" />
        </mxCell>
        <mxCell id="gwOgM0LgX5GfEIh14Njk-58" value="COURSE" style="rounded=1;arcSize=10;whiteSpace=wrap;html=1;align=center;fontFamily=Helvetica;fontSize=11;fontColor=default;" vertex="1" parent="1">
          <mxGeometry x="150" y="860" width="100" height="40" as="geometry" />
        </mxCell>
        <mxCell id="gwOgM0LgX5GfEIh14Njk-71" style="edgeStyle=orthogonalEdgeStyle;shape=connector;rounded=0;orthogonalLoop=1;jettySize=auto;html=1;exitX=0.5;exitY=1;exitDx=0;exitDy=0;labelBackgroundColor=default;strokeColor=default;fontFamily=Helvetica;fontSize=11;fontColor=default;endArrow=none;endFill=0;" edge="1" parent="1" source="gwOgM0LgX5GfEIh14Njk-60" target="gwOgM0LgX5GfEIh14Njk-58">
          <mxGeometry relative="1" as="geometry" />
        </mxCell>
        <mxCell id="gwOgM0LgX5GfEIh14Njk-60" value="Id" style="ellipse;whiteSpace=wrap;html=1;align=center;fontStyle=4;fontFamily=Helvetica;fontSize=11;fontColor=default;" vertex="1" parent="1">
          <mxGeometry x="130" y="710" width="100" height="40" as="geometry" />
        </mxCell>
        <mxCell id="gwOgM0LgX5GfEIh14Njk-61" value="Name" style="ellipse;whiteSpace=wrap;html=1;align=center;fontFamily=Helvetica;fontSize=11;fontColor=default;" vertex="1" parent="1">
          <mxGeometry x="310" y="860" width="100" height="40" as="geometry" />
        </mxCell>
        <mxCell id="gwOgM0LgX5GfEIh14Njk-66" style="edgeStyle=orthogonalEdgeStyle;shape=connector;rounded=0;orthogonalLoop=1;jettySize=auto;html=1;exitX=1;exitY=0.5;exitDx=0;exitDy=0;entryX=0;entryY=0;entryDx=0;entryDy=0;labelBackgroundColor=default;strokeColor=default;fontFamily=Helvetica;fontSize=11;fontColor=default;endArrow=none;endFill=0;" edge="1" parent="1" source="gwOgM0LgX5GfEIh14Njk-62" target="gwOgM0LgX5GfEIh14Njk-58">
          <mxGeometry relative="1" as="geometry" />
        </mxCell>
        <mxCell id="gwOgM0LgX5GfEIh14Njk-62" value="Lecture_in_charge" style="ellipse;whiteSpace=wrap;html=1;align=center;fontFamily=Helvetica;fontSize=11;fontColor=default;" vertex="1" parent="1">
          <mxGeometry x="20" y="780" width="100" height="40" as="geometry" />
        </mxCell>
        <mxCell id="gwOgM0LgX5GfEIh14Njk-67" style="edgeStyle=orthogonalEdgeStyle;shape=connector;rounded=0;orthogonalLoop=1;jettySize=auto;html=1;exitX=1;exitY=0.5;exitDx=0;exitDy=0;labelBackgroundColor=default;strokeColor=default;fontFamily=Helvetica;fontSize=11;fontColor=default;endArrow=none;endFill=0;" edge="1" parent="1" source="gwOgM0LgX5GfEIh14Njk-63" target="gwOgM0LgX5GfEIh14Njk-58">
          <mxGeometry relative="1" as="geometry" />
        </mxCell>
        <mxCell id="gwOgM0LgX5GfEIh14Njk-63" value="Number_of_student" style="ellipse;whiteSpace=wrap;html=1;align=center;fontFamily=Helvetica;fontSize=11;fontColor=default;" vertex="1" parent="1">
          <mxGeometry x="-30" y="855" width="110" height="50" as="geometry" />
        </mxCell>
        <mxCell id="gwOgM0LgX5GfEIh14Njk-68" style="edgeStyle=orthogonalEdgeStyle;shape=connector;rounded=0;orthogonalLoop=1;jettySize=auto;html=1;exitX=0.5;exitY=0;exitDx=0;exitDy=0;entryX=0.548;entryY=0.968;entryDx=0;entryDy=0;entryPerimeter=0;labelBackgroundColor=default;strokeColor=default;fontFamily=Helvetica;fontSize=11;fontColor=default;endArrow=none;endFill=0;" edge="1" parent="1" source="gwOgM0LgX5GfEIh14Njk-64" target="gwOgM0LgX5GfEIh14Njk-58">
          <mxGeometry relative="1" as="geometry" />
        </mxCell>
        <mxCell id="gwOgM0LgX5GfEIh14Njk-64" value="Offered_department" style="ellipse;whiteSpace=wrap;html=1;align=center;fontFamily=Helvetica;fontSize=11;fontColor=default;" vertex="1" parent="1">
          <mxGeometry x="80" y="940" width="110" height="50" as="geometry" />
        </mxCell>
        <mxCell id="gwOgM0LgX5GfEIh14Njk-69" style="edgeStyle=orthogonalEdgeStyle;shape=connector;rounded=0;orthogonalLoop=1;jettySize=auto;html=1;exitX=0.5;exitY=0;exitDx=0;exitDy=0;entryX=0.75;entryY=1;entryDx=0;entryDy=0;labelBackgroundColor=default;strokeColor=default;fontFamily=Helvetica;fontSize=11;fontColor=default;endArrow=none;endFill=0;" edge="1" parent="1" source="gwOgM0LgX5GfEIh14Njk-65" target="gwOgM0LgX5GfEIh14Njk-58">
          <mxGeometry relative="1" as="geometry" />
        </mxCell>
        <mxCell id="gwOgM0LgX5GfEIh14Njk-65" value="Hours" style="ellipse;whiteSpace=wrap;html=1;align=center;fontFamily=Helvetica;fontSize=11;fontColor=default;" vertex="1" parent="1">
          <mxGeometry x="230" y="940" width="110" height="50" as="geometry" />
        </mxCell>
        <mxCell id="gwOgM0LgX5GfEIh14Njk-85" style="edgeStyle=orthogonalEdgeStyle;shape=connector;rounded=0;orthogonalLoop=1;jettySize=auto;html=1;exitX=0.5;exitY=1;exitDx=0;exitDy=0;entryX=0.5;entryY=0;entryDx=0;entryDy=0;labelBackgroundColor=default;strokeColor=default;fontFamily=Helvetica;fontSize=11;fontColor=default;endArrow=none;endFill=0;" edge="1" parent="1" source="gwOgM0LgX5GfEIh14Njk-73" target="gwOgM0LgX5GfEIh14Njk-84">
          <mxGeometry relative="1" as="geometry" />
        </mxCell>
        <mxCell id="gwOgM0LgX5GfEIh14Njk-87" style="edgeStyle=orthogonalEdgeStyle;shape=connector;rounded=0;orthogonalLoop=1;jettySize=auto;html=1;exitX=0.5;exitY=0;exitDx=0;exitDy=0;entryX=0.5;entryY=1;entryDx=0;entryDy=0;labelBackgroundColor=default;strokeColor=default;fontFamily=Helvetica;fontSize=11;fontColor=default;endArrow=none;endFill=0;" edge="1" parent="1" source="gwOgM0LgX5GfEIh14Njk-73" target="gwOgM0LgX5GfEIh14Njk-75">
          <mxGeometry relative="1" as="geometry" />
        </mxCell>
        <mxCell id="gwOgM0LgX5GfEIh14Njk-159" style="edgeStyle=orthogonalEdgeStyle;shape=connector;rounded=0;orthogonalLoop=1;jettySize=auto;html=1;exitX=0.75;exitY=1;exitDx=0;exitDy=0;labelBackgroundColor=default;strokeColor=default;fontFamily=Helvetica;fontSize=11;fontColor=default;endArrow=none;endFill=0;" edge="1" parent="1" source="gwOgM0LgX5GfEIh14Njk-73">
          <mxGeometry relative="1" as="geometry">
            <mxPoint x="580" y="800" as="targetPoint" />
            <Array as="points">
              <mxPoint x="565" y="800" />
            </Array>
          </mxGeometry>
        </mxCell>
        <mxCell id="gwOgM0LgX5GfEIh14Njk-73" value="DEPARTMENT" style="whiteSpace=wrap;html=1;align=center;fontFamily=Helvetica;fontSize=11;fontColor=default;" vertex="1" parent="1">
          <mxGeometry x="490" y="720" width="100" height="40" as="geometry" />
        </mxCell>
        <mxCell id="gwOgM0LgX5GfEIh14Njk-75" value="Name" style="ellipse;whiteSpace=wrap;html=1;align=center;fontFamily=Helvetica;fontSize=11;fontColor=default;" vertex="1" parent="1">
          <mxGeometry x="490" y="650" width="100" height="40" as="geometry" />
        </mxCell>
        <mxCell id="gwOgM0LgX5GfEIh14Njk-84" value="Location" style="ellipse;whiteSpace=wrap;html=1;align=center;fontFamily=Helvetica;fontSize=11;fontColor=default;" vertex="1" parent="1">
          <mxGeometry x="490" y="820" width="100" height="40" as="geometry" />
        </mxCell>
        <mxCell id="gwOgM0LgX5GfEIh14Njk-92" style="edgeStyle=orthogonalEdgeStyle;shape=connector;rounded=0;orthogonalLoop=1;jettySize=auto;html=1;exitX=0.75;exitY=1;exitDx=0;exitDy=0;entryX=0.5;entryY=0;entryDx=0;entryDy=0;labelBackgroundColor=default;strokeColor=default;fontFamily=Helvetica;fontSize=11;fontColor=default;endArrow=none;endFill=0;" edge="1" parent="1" source="gwOgM0LgX5GfEIh14Njk-88" target="gwOgM0LgX5GfEIh14Njk-90">
          <mxGeometry relative="1" as="geometry" />
        </mxCell>
        <mxCell id="gwOgM0LgX5GfEIh14Njk-88" value="ATTENDANCE" style="whiteSpace=wrap;html=1;align=center;fontFamily=Helvetica;fontSize=11;fontColor=default;" vertex="1" parent="1">
          <mxGeometry x="760" y="980" width="100" height="40" as="geometry" />
        </mxCell>
        <mxCell id="gwOgM0LgX5GfEIh14Njk-93" style="edgeStyle=orthogonalEdgeStyle;shape=connector;rounded=0;orthogonalLoop=1;jettySize=auto;html=1;exitX=0.5;exitY=0;exitDx=0;exitDy=0;labelBackgroundColor=default;strokeColor=default;fontFamily=Helvetica;fontSize=11;fontColor=default;endArrow=none;endFill=0;entryX=0.25;entryY=1;entryDx=0;entryDy=0;" edge="1" parent="1" source="gwOgM0LgX5GfEIh14Njk-89" target="gwOgM0LgX5GfEIh14Njk-88">
          <mxGeometry relative="1" as="geometry">
            <Array as="points">
              <mxPoint x="740" y="1120" />
              <mxPoint x="740" y="1040" />
              <mxPoint x="780" y="1040" />
              <mxPoint x="780" y="1020" />
            </Array>
          </mxGeometry>
        </mxCell>
        <mxCell id="gwOgM0LgX5GfEIh14Njk-89" value="Medicals" style="ellipse;whiteSpace=wrap;html=1;align=center;fontFamily=Helvetica;fontSize=11;fontColor=default;" vertex="1" parent="1">
          <mxGeometry x="630" y="1120" width="100" height="40" as="geometry" />
        </mxCell>
        <mxCell id="gwOgM0LgX5GfEIh14Njk-90" value="Student_details" style="ellipse;whiteSpace=wrap;html=1;align=center;fontFamily=Helvetica;fontSize=11;fontColor=default;" vertex="1" parent="1">
          <mxGeometry x="920" y="1090" width="100" height="40" as="geometry" />
        </mxCell>
        <mxCell id="gwOgM0LgX5GfEIh14Njk-94" style="edgeStyle=orthogonalEdgeStyle;shape=connector;rounded=0;orthogonalLoop=1;jettySize=auto;html=1;exitX=0;exitY=0.5;exitDx=0;exitDy=0;entryX=1;entryY=0.5;entryDx=0;entryDy=0;labelBackgroundColor=default;strokeColor=default;fontFamily=Helvetica;fontSize=11;fontColor=default;endArrow=none;endFill=0;" edge="1" parent="1" source="gwOgM0LgX5GfEIh14Njk-91" target="gwOgM0LgX5GfEIh14Njk-88">
          <mxGeometry relative="1" as="geometry" />
        </mxCell>
        <mxCell id="gwOgM0LgX5GfEIh14Njk-91" value="Department" style="ellipse;whiteSpace=wrap;html=1;align=center;fontFamily=Helvetica;fontSize=11;fontColor=default;" vertex="1" parent="1">
          <mxGeometry x="930" y="980" width="100" height="40" as="geometry" />
        </mxCell>
        <mxCell id="gwOgM0LgX5GfEIh14Njk-99" style="edgeStyle=orthogonalEdgeStyle;shape=connector;rounded=0;orthogonalLoop=1;jettySize=auto;html=1;exitX=0.5;exitY=1;exitDx=0;exitDy=0;labelBackgroundColor=default;strokeColor=default;fontFamily=Helvetica;fontSize=11;fontColor=default;endArrow=none;endFill=0;" edge="1" parent="1" source="gwOgM0LgX5GfEIh14Njk-95" target="gwOgM0LgX5GfEIh14Njk-97">
          <mxGeometry relative="1" as="geometry" />
        </mxCell>
        <mxCell id="gwOgM0LgX5GfEIh14Njk-100" style="edgeStyle=orthogonalEdgeStyle;shape=connector;rounded=0;orthogonalLoop=1;jettySize=auto;html=1;exitX=1;exitY=0.5;exitDx=0;exitDy=0;entryX=0.6;entryY=0;entryDx=0;entryDy=0;entryPerimeter=0;labelBackgroundColor=default;strokeColor=default;fontFamily=Helvetica;fontSize=11;fontColor=default;endArrow=none;endFill=0;" edge="1" parent="1" source="gwOgM0LgX5GfEIh14Njk-95" target="gwOgM0LgX5GfEIh14Njk-96">
          <mxGeometry relative="1" as="geometry" />
        </mxCell>
        <mxCell id="gwOgM0LgX5GfEIh14Njk-95" value="PAST_PAPER" style="rounded=1;arcSize=10;whiteSpace=wrap;html=1;align=center;fontFamily=Helvetica;fontSize=11;fontColor=default;" vertex="1" parent="1">
          <mxGeometry x="260" y="1090" width="100" height="40" as="geometry" />
        </mxCell>
        <mxCell id="gwOgM0LgX5GfEIh14Njk-96" value="Level" style="ellipse;whiteSpace=wrap;html=1;align=center;fontFamily=Helvetica;fontSize=11;fontColor=default;" vertex="1" parent="1">
          <mxGeometry x="380" y="1130" width="100" height="40" as="geometry" />
        </mxCell>
        <mxCell id="gwOgM0LgX5GfEIh14Njk-97" value="Year" style="ellipse;whiteSpace=wrap;html=1;align=center;fontFamily=Helvetica;fontSize=11;fontColor=default;" vertex="1" parent="1">
          <mxGeometry x="260" y="1160" width="100" height="40" as="geometry" />
        </mxCell>
        <mxCell id="gwOgM0LgX5GfEIh14Njk-123" style="edgeStyle=orthogonalEdgeStyle;shape=connector;rounded=0;orthogonalLoop=1;jettySize=auto;html=1;exitX=0.75;exitY=1;exitDx=0;exitDy=0;entryX=0;entryY=0.5;entryDx=0;entryDy=0;labelBackgroundColor=default;strokeColor=default;fontFamily=Helvetica;fontSize=11;fontColor=default;endArrow=none;endFill=0;" edge="1" parent="1" source="gwOgM0LgX5GfEIh14Njk-101" target="gwOgM0LgX5GfEIh14Njk-122">
          <mxGeometry relative="1" as="geometry" />
        </mxCell>
        <mxCell id="gwOgM0LgX5GfEIh14Njk-217" style="edgeStyle=orthogonalEdgeStyle;shape=connector;rounded=0;orthogonalLoop=1;jettySize=auto;html=1;exitX=0;exitY=0;exitDx=0;exitDy=0;entryX=1;entryY=1;entryDx=0;entryDy=0;labelBackgroundColor=default;strokeColor=default;fontFamily=Helvetica;fontSize=11;fontColor=default;endArrow=none;endFill=0;" edge="1" parent="1" source="gwOgM0LgX5GfEIh14Njk-226" target="gwOgM0LgX5GfEIh14Njk-192">
          <mxGeometry relative="1" as="geometry" />
        </mxCell>
        <mxCell id="gwOgM0LgX5GfEIh14Njk-101" value="STAFF" style="rounded=1;arcSize=10;whiteSpace=wrap;html=1;align=center;fontFamily=Helvetica;fontSize=11;fontColor=default;" vertex="1" parent="1">
          <mxGeometry x="1010" y="260" width="100" height="40" as="geometry" />
        </mxCell>
        <mxCell id="gwOgM0LgX5GfEIh14Njk-109" style="edgeStyle=orthogonalEdgeStyle;shape=connector;rounded=0;orthogonalLoop=1;jettySize=auto;html=1;exitX=0.5;exitY=1;exitDx=0;exitDy=0;entryX=0.599;entryY=0.005;entryDx=0;entryDy=0;entryPerimeter=0;labelBackgroundColor=default;strokeColor=default;fontFamily=Helvetica;fontSize=11;fontColor=default;endArrow=none;endFill=0;" edge="1" parent="1" source="gwOgM0LgX5GfEIh14Njk-102" target="gwOgM0LgX5GfEIh14Njk-101">
          <mxGeometry relative="1" as="geometry" />
        </mxCell>
        <mxCell id="gwOgM0LgX5GfEIh14Njk-102" value="Country" style="ellipse;whiteSpace=wrap;html=1;align=center;fontFamily=Helvetica;fontSize=11;fontColor=default;" vertex="1" parent="1">
          <mxGeometry x="1020" y="150" width="100" height="40" as="geometry" />
        </mxCell>
        <mxCell id="gwOgM0LgX5GfEIh14Njk-111" style="edgeStyle=orthogonalEdgeStyle;shape=connector;rounded=0;orthogonalLoop=1;jettySize=auto;html=1;exitX=0;exitY=0.5;exitDx=0;exitDy=0;entryX=1;entryY=0.5;entryDx=0;entryDy=0;labelBackgroundColor=default;strokeColor=default;fontFamily=Helvetica;fontSize=11;fontColor=default;endArrow=none;endFill=0;" edge="1" parent="1" source="gwOgM0LgX5GfEIh14Njk-103" target="gwOgM0LgX5GfEIh14Njk-101">
          <mxGeometry relative="1" as="geometry" />
        </mxCell>
        <mxCell id="gwOgM0LgX5GfEIh14Njk-103" value="Country" style="ellipse;whiteSpace=wrap;html=1;align=center;fontFamily=Helvetica;fontSize=11;fontColor=default;" vertex="1" parent="1">
          <mxGeometry x="1140" y="270" width="100" height="40" as="geometry" />
        </mxCell>
        <mxCell id="gwOgM0LgX5GfEIh14Njk-110" style="edgeStyle=orthogonalEdgeStyle;shape=connector;rounded=0;orthogonalLoop=1;jettySize=auto;html=1;exitX=0;exitY=1;exitDx=0;exitDy=0;entryX=0.864;entryY=0.018;entryDx=0;entryDy=0;labelBackgroundColor=default;strokeColor=default;fontFamily=Helvetica;fontSize=11;fontColor=default;endArrow=none;endFill=0;entryPerimeter=0;" edge="1" parent="1" source="gwOgM0LgX5GfEIh14Njk-104" target="gwOgM0LgX5GfEIh14Njk-101">
          <mxGeometry relative="1" as="geometry" />
        </mxCell>
        <mxCell id="gwOgM0LgX5GfEIh14Njk-104" value="Position" style="ellipse;whiteSpace=wrap;html=1;align=center;fontFamily=Helvetica;fontSize=11;fontColor=default;" vertex="1" parent="1">
          <mxGeometry x="1140" y="200" width="100" height="40" as="geometry" />
        </mxCell>
        <mxCell id="gwOgM0LgX5GfEIh14Njk-112" style="edgeStyle=orthogonalEdgeStyle;shape=connector;rounded=0;orthogonalLoop=1;jettySize=auto;html=1;exitX=0.5;exitY=0;exitDx=0;exitDy=0;labelBackgroundColor=default;strokeColor=default;fontFamily=Helvetica;fontSize=11;fontColor=default;endArrow=none;endFill=0;entryX=0.5;entryY=1;entryDx=0;entryDy=0;" edge="1" parent="1" source="gwOgM0LgX5GfEIh14Njk-105" target="gwOgM0LgX5GfEIh14Njk-101">
          <mxGeometry relative="1" as="geometry">
            <mxPoint x="1060" y="310" as="targetPoint" />
          </mxGeometry>
        </mxCell>
        <mxCell id="gwOgM0LgX5GfEIh14Njk-105" value="General" style="ellipse;whiteSpace=wrap;html=1;align=center;fontFamily=Helvetica;fontSize=11;fontColor=default;" vertex="1" parent="1">
          <mxGeometry x="1120" y="530" width="100" height="40" as="geometry" />
        </mxCell>
        <mxCell id="gwOgM0LgX5GfEIh14Njk-121" style="edgeStyle=orthogonalEdgeStyle;shape=connector;rounded=0;orthogonalLoop=1;jettySize=auto;html=1;exitX=1;exitY=0.5;exitDx=0;exitDy=0;entryX=0;entryY=0.25;entryDx=0;entryDy=0;labelBackgroundColor=default;strokeColor=default;fontFamily=Helvetica;fontSize=11;fontColor=default;endArrow=none;endFill=0;" edge="1" parent="1" target="gwOgM0LgX5GfEIh14Njk-101">
          <mxGeometry relative="1" as="geometry">
            <mxPoint x="980.0000000000064" y="270" as="sourcePoint" />
          </mxGeometry>
        </mxCell>
        <mxCell id="gwOgM0LgX5GfEIh14Njk-120" style="edgeStyle=orthogonalEdgeStyle;shape=connector;rounded=0;orthogonalLoop=1;jettySize=auto;html=1;entryX=0.5;entryY=0;entryDx=0;entryDy=0;labelBackgroundColor=default;strokeColor=default;fontFamily=Helvetica;fontSize=11;fontColor=default;endArrow=none;endFill=0;" edge="1" parent="1" source="gwOgM0LgX5GfEIh14Njk-108">
          <mxGeometry relative="1" as="geometry">
            <mxPoint x="930" y="250" as="targetPoint" />
          </mxGeometry>
        </mxCell>
        <mxCell id="gwOgM0LgX5GfEIh14Njk-108" value="First" style="ellipse;whiteSpace=wrap;html=1;align=center;fontFamily=Helvetica;fontSize=11;fontColor=default;" vertex="1" parent="1">
          <mxGeometry x="880" y="170" width="100" height="40" as="geometry" />
        </mxCell>
        <mxCell id="gwOgM0LgX5GfEIh14Njk-114" style="edgeStyle=orthogonalEdgeStyle;shape=connector;rounded=0;orthogonalLoop=1;jettySize=auto;html=1;entryX=0;entryY=0.75;entryDx=0;entryDy=0;labelBackgroundColor=default;strokeColor=default;fontFamily=Helvetica;fontSize=11;fontColor=default;endArrow=none;endFill=0;exitX=1;exitY=0.5;exitDx=0;exitDy=0;" edge="1" parent="1" source="gwOgM0LgX5GfEIh14Njk-113" target="gwOgM0LgX5GfEIh14Njk-101">
          <mxGeometry relative="1" as="geometry">
            <Array as="points">
              <mxPoint x="930" y="360" />
              <mxPoint x="990" y="360" />
              <mxPoint x="990" y="290" />
            </Array>
          </mxGeometry>
        </mxCell>
        <mxCell id="gwOgM0LgX5GfEIh14Njk-113" value="Staff_no" style="ellipse;whiteSpace=wrap;html=1;align=center;fontStyle=4;fontFamily=Helvetica;fontSize=11;fontColor=default;" vertex="1" parent="1">
          <mxGeometry x="830" y="360" width="100" height="40" as="geometry" />
        </mxCell>
        <mxCell id="gwOgM0LgX5GfEIh14Njk-118" style="edgeStyle=orthogonalEdgeStyle;shape=connector;rounded=0;orthogonalLoop=1;jettySize=auto;html=1;exitX=1;exitY=0.5;exitDx=0;exitDy=0;entryX=0;entryY=0.5;entryDx=0;entryDy=0;labelBackgroundColor=default;strokeColor=default;fontFamily=Helvetica;fontSize=11;fontColor=default;endArrow=none;endFill=0;" edge="1" parent="1" source="gwOgM0LgX5GfEIh14Njk-115">
          <mxGeometry relative="1" as="geometry">
            <mxPoint x="879.9999999999939" y="270" as="targetPoint" />
          </mxGeometry>
        </mxCell>
        <mxCell id="gwOgM0LgX5GfEIh14Njk-115" value="Middle" style="ellipse;whiteSpace=wrap;html=1;align=center;fontFamily=Helvetica;fontSize=11;fontColor=default;" vertex="1" parent="1">
          <mxGeometry x="750" y="250" width="100" height="40" as="geometry" />
        </mxCell>
        <mxCell id="gwOgM0LgX5GfEIh14Njk-117" style="edgeStyle=orthogonalEdgeStyle;shape=connector;rounded=0;orthogonalLoop=1;jettySize=auto;html=1;entryX=0.5;entryY=1;entryDx=0;entryDy=0;labelBackgroundColor=default;strokeColor=default;fontFamily=Helvetica;fontSize=11;fontColor=default;endArrow=none;endFill=0;" edge="1" parent="1" source="gwOgM0LgX5GfEIh14Njk-116">
          <mxGeometry relative="1" as="geometry">
            <mxPoint x="930" y="290" as="targetPoint" />
          </mxGeometry>
        </mxCell>
        <mxCell id="gwOgM0LgX5GfEIh14Njk-116" value="Last" style="ellipse;whiteSpace=wrap;html=1;align=center;fontFamily=Helvetica;fontSize=11;fontColor=default;" vertex="1" parent="1">
          <mxGeometry x="740" y="300" width="100" height="40" as="geometry" />
        </mxCell>
        <mxCell id="gwOgM0LgX5GfEIh14Njk-122" value="Telephone" style="ellipse;shape=doubleEllipse;margin=3;whiteSpace=wrap;html=1;align=center;fontFamily=Helvetica;fontSize=11;fontColor=default;" vertex="1" parent="1">
          <mxGeometry x="1130" y="350" width="100" height="40" as="geometry" />
        </mxCell>
        <mxCell id="gwOgM0LgX5GfEIh14Njk-124" value="Address" style="ellipse;whiteSpace=wrap;html=1;align=center;fontFamily=Helvetica;fontSize=11;fontColor=default;" vertex="1" parent="1">
          <mxGeometry x="880" y="250" width="100" height="40" as="geometry" />
        </mxCell>
        <mxCell id="gwOgM0LgX5GfEIh14Njk-127" style="edgeStyle=orthogonalEdgeStyle;shape=connector;rounded=0;orthogonalLoop=1;jettySize=auto;html=1;exitX=1;exitY=0.5;exitDx=0;exitDy=0;entryX=-0.009;entryY=0.354;entryDx=0;entryDy=0;labelBackgroundColor=default;strokeColor=default;fontFamily=Helvetica;fontSize=11;fontColor=default;endArrow=none;endFill=0;entryPerimeter=0;" edge="1" parent="1" source="gwOgM0LgX5GfEIh14Njk-125" target="gwOgM0LgX5GfEIh14Njk-36">
          <mxGeometry relative="1" as="geometry">
            <Array as="points">
              <mxPoint x="60" y="180" />
              <mxPoint x="60" y="294" />
              <mxPoint x="170" y="294" />
            </Array>
          </mxGeometry>
        </mxCell>
        <mxCell id="gwOgM0LgX5GfEIh14Njk-125" value="Address" style="ellipse;whiteSpace=wrap;html=1;align=center;fontFamily=Helvetica;fontSize=11;fontColor=default;" vertex="1" parent="1">
          <mxGeometry x="-110" y="160" width="100" height="40" as="geometry" />
        </mxCell>
        <mxCell id="gwOgM0LgX5GfEIh14Njk-142" value="" style="endArrow=none;html=1;rounded=0;labelBackgroundColor=default;strokeColor=default;fontFamily=Helvetica;fontSize=11;fontColor=default;shape=connector;entryX=0.25;entryY=1;entryDx=0;entryDy=0;exitX=1;exitY=0.5;exitDx=0;exitDy=0;" edge="1" parent="1" target="gwOgM0LgX5GfEIh14Njk-101">
          <mxGeometry relative="1" as="geometry">
            <mxPoint x="850" y="600" as="sourcePoint" />
            <mxPoint x="880" y="540" as="targetPoint" />
            <Array as="points">
              <mxPoint x="900" y="600" />
              <mxPoint x="1035" y="600" />
            </Array>
          </mxGeometry>
        </mxCell>
        <mxCell id="gwOgM0LgX5GfEIh14Njk-143" value="N" style="resizable=0;html=1;whiteSpace=wrap;align=right;verticalAlign=bottom;fontFamily=Helvetica;fontSize=11;fontColor=default;" connectable="0" vertex="1" parent="gwOgM0LgX5GfEIh14Njk-142">
          <mxGeometry x="1" relative="1" as="geometry">
            <mxPoint y="19" as="offset" />
          </mxGeometry>
        </mxCell>
        <mxCell id="gwOgM0LgX5GfEIh14Njk-144" value="" style="endArrow=none;html=1;rounded=0;labelBackgroundColor=default;strokeColor=default;fontFamily=Helvetica;fontSize=11;fontColor=default;shape=connector;exitX=1;exitY=0;exitDx=0;exitDy=0;entryX=0;entryY=0.5;entryDx=0;entryDy=0;" edge="1" parent="1" source="gwOgM0LgX5GfEIh14Njk-73">
          <mxGeometry relative="1" as="geometry">
            <mxPoint x="590" y="720" as="sourcePoint" />
            <mxPoint x="730" y="600" as="targetPoint" />
            <Array as="points">
              <mxPoint x="590" y="600" />
            </Array>
          </mxGeometry>
        </mxCell>
        <mxCell id="gwOgM0LgX5GfEIh14Njk-150" value="" style="endArrow=none;html=1;rounded=0;labelBackgroundColor=default;strokeColor=default;fontFamily=Helvetica;fontSize=11;fontColor=default;shape=connector;exitX=0.603;exitY=1.019;exitDx=0;exitDy=0;exitPerimeter=0;" edge="1" parent="1" source="gwOgM0LgX5GfEIh14Njk-58" target="gwOgM0LgX5GfEIh14Njk-149">
          <mxGeometry relative="1" as="geometry">
            <mxPoint x="210" y="901" as="sourcePoint" />
            <mxPoint x="260" y="1110" as="targetPoint" />
            <Array as="points" />
          </mxGeometry>
        </mxCell>
        <mxCell id="gwOgM0LgX5GfEIh14Njk-149" value="Relationship" style="shape=rhombus;double=1;perimeter=rhombusPerimeter;whiteSpace=wrap;html=1;align=center;fontFamily=Helvetica;fontSize=11;fontColor=default;" vertex="1" parent="1">
          <mxGeometry x="150" y="1020" width="120" height="60" as="geometry" />
        </mxCell>
        <mxCell id="gwOgM0LgX5GfEIh14Njk-152" value="" style="shape=link;html=1;rounded=0;labelBackgroundColor=default;strokeColor=default;fontFamily=Helvetica;fontSize=11;fontColor=default;endArrow=none;endFill=0;exitX=0.5;exitY=1;exitDx=0;exitDy=0;" edge="1" parent="1" source="gwOgM0LgX5GfEIh14Njk-149">
          <mxGeometry relative="1" as="geometry">
            <mxPoint x="210" y="1110" as="sourcePoint" />
            <mxPoint x="260" y="1109.58" as="targetPoint" />
            <Array as="points">
              <mxPoint x="210" y="1110" />
            </Array>
          </mxGeometry>
        </mxCell>
        <mxCell id="gwOgM0LgX5GfEIh14Njk-153" value="N" style="resizable=0;html=1;whiteSpace=wrap;align=right;verticalAlign=bottom;fontFamily=Helvetica;fontSize=11;fontColor=default;" connectable="0" vertex="1" parent="gwOgM0LgX5GfEIh14Njk-152">
          <mxGeometry x="1" relative="1" as="geometry" />
        </mxCell>
        <mxCell id="gwOgM0LgX5GfEIh14Njk-154" value="" style="endArrow=none;html=1;rounded=0;labelBackgroundColor=default;strokeColor=default;fontFamily=Helvetica;fontSize=11;fontColor=default;shape=connector;entryX=0.5;entryY=0;entryDx=0;entryDy=0;exitX=0.5;exitY=1;exitDx=0;exitDy=0;" edge="1" parent="1" target="gwOgM0LgX5GfEIh14Njk-88">
          <mxGeometry relative="1" as="geometry">
            <mxPoint x="700" y="930" as="sourcePoint" />
            <mxPoint x="830" y="900" as="targetPoint" />
            <Array as="points">
              <mxPoint x="700" y="980" />
            </Array>
          </mxGeometry>
        </mxCell>
        <mxCell id="gwOgM0LgX5GfEIh14Njk-155" value="N" style="resizable=0;html=1;whiteSpace=wrap;align=right;verticalAlign=bottom;fontFamily=Helvetica;fontSize=11;fontColor=default;" connectable="0" vertex="1" parent="gwOgM0LgX5GfEIh14Njk-154">
          <mxGeometry x="1" relative="1" as="geometry" />
        </mxCell>
        <mxCell id="gwOgM0LgX5GfEIh14Njk-157" value="" style="endArrow=none;html=1;rounded=0;labelBackgroundColor=default;strokeColor=default;fontFamily=Helvetica;fontSize=11;fontColor=default;shape=connector;entryX=0.5;entryY=0;entryDx=0;entryDy=0;" edge="1" parent="1">
          <mxGeometry relative="1" as="geometry">
            <mxPoint x="580" y="800" as="sourcePoint" />
            <mxPoint x="700" y="870" as="targetPoint" />
            <Array as="points">
              <mxPoint x="700" y="800" />
            </Array>
          </mxGeometry>
        </mxCell>
        <mxCell id="gwOgM0LgX5GfEIh14Njk-163" value="Has" style="shape=rhombus;perimeter=rhombusPerimeter;whiteSpace=wrap;html=1;align=center;fontFamily=Helvetica;fontSize=11;fontColor=default;" vertex="1" parent="1">
          <mxGeometry x="150" y="1020" width="120" height="60" as="geometry" />
        </mxCell>
        <mxCell id="gwOgM0LgX5GfEIh14Njk-165" value="Maintain" style="shape=rhombus;perimeter=rhombusPerimeter;whiteSpace=wrap;html=1;align=center;fontFamily=Helvetica;fontSize=11;fontColor=default;" vertex="1" parent="1">
          <mxGeometry x="640" y="870" width="120" height="60" as="geometry" />
        </mxCell>
        <mxCell id="gwOgM0LgX5GfEIh14Njk-166" value="Works_in" style="shape=rhombus;perimeter=rhombusPerimeter;whiteSpace=wrap;html=1;align=center;fontFamily=Helvetica;fontSize=11;fontColor=default;" vertex="1" parent="1">
          <mxGeometry x="730" y="570" width="120" height="60" as="geometry" />
        </mxCell>
        <mxCell id="gwOgM0LgX5GfEIh14Njk-170" style="edgeStyle=orthogonalEdgeStyle;shape=connector;rounded=0;orthogonalLoop=1;jettySize=auto;html=1;exitX=1;exitY=0.5;exitDx=0;exitDy=0;entryX=0.3;entryY=1;entryDx=0;entryDy=0;entryPerimeter=0;labelBackgroundColor=default;strokeColor=default;fontFamily=Helvetica;fontSize=11;fontColor=default;endArrow=none;endFill=0;" edge="1" parent="1" source="gwOgM0LgX5GfEIh14Njk-167" target="gwOgM0LgX5GfEIh14Njk-73">
          <mxGeometry relative="1" as="geometry" />
        </mxCell>
        <mxCell id="gwOgM0LgX5GfEIh14Njk-167" value="Offers" style="shape=rhombus;perimeter=rhombusPerimeter;whiteSpace=wrap;html=1;align=center;fontFamily=Helvetica;fontSize=11;fontColor=default;" vertex="1" parent="1">
          <mxGeometry x="325" y="750" width="120" height="60" as="geometry" />
        </mxCell>
        <mxCell id="gwOgM0LgX5GfEIh14Njk-168" value="" style="shape=link;html=1;rounded=0;labelBackgroundColor=default;strokeColor=default;fontFamily=Helvetica;fontSize=11;fontColor=default;endArrow=none;endFill=0;exitX=0.875;exitY=-0.038;exitDx=0;exitDy=0;exitPerimeter=0;" edge="1" parent="1" source="gwOgM0LgX5GfEIh14Njk-58" target="gwOgM0LgX5GfEIh14Njk-167">
          <mxGeometry relative="1" as="geometry">
            <mxPoint x="236.47999999999982" y="844.2000000000002" as="sourcePoint" />
            <mxPoint x="330" y="780" as="targetPoint" />
            <Array as="points">
              <mxPoint x="235.28" y="783.08" />
            </Array>
          </mxGeometry>
        </mxCell>
        <mxCell id="gwOgM0LgX5GfEIh14Njk-169" value="N" style="resizable=0;html=1;whiteSpace=wrap;align=right;verticalAlign=bottom;fontFamily=Helvetica;fontSize=11;fontColor=default;" connectable="0" vertex="1" parent="gwOgM0LgX5GfEIh14Njk-168">
          <mxGeometry x="1" relative="1" as="geometry" />
        </mxCell>
        <mxCell id="gwOgM0LgX5GfEIh14Njk-173" value="" style="shape=link;html=1;rounded=0;labelBackgroundColor=default;strokeColor=default;fontFamily=Helvetica;fontSize=11;fontColor=default;endArrow=none;endFill=0;exitX=1;exitY=0.5;exitDx=0;exitDy=0;entryX=0.701;entryY=-0.023;entryDx=0;entryDy=0;entryPerimeter=0;width=-4.444444444444445;" edge="1" parent="1" source="gwOgM0LgX5GfEIh14Njk-179" target="gwOgM0LgX5GfEIh14Njk-58">
          <mxGeometry relative="1" as="geometry">
            <mxPoint x="270" y="640" as="sourcePoint" />
            <mxPoint x="224" y="856" as="targetPoint" />
            <Array as="points">
              <mxPoint x="280" y="600" />
              <mxPoint x="280" y="730" />
              <mxPoint x="220" y="780" />
              <mxPoint x="220" y="840" />
              <mxPoint x="220" y="850" />
            </Array>
          </mxGeometry>
        </mxCell>
        <mxCell id="gwOgM0LgX5GfEIh14Njk-175" value="N" style="resizable=0;html=1;whiteSpace=wrap;align=right;verticalAlign=bottom;fontFamily=Helvetica;fontSize=11;fontColor=default;" connectable="0" vertex="1" parent="gwOgM0LgX5GfEIh14Njk-173">
          <mxGeometry x="1" relative="1" as="geometry" />
        </mxCell>
        <mxCell id="gwOgM0LgX5GfEIh14Njk-176" value="" style="shape=link;html=1;rounded=0;labelBackgroundColor=default;strokeColor=default;fontFamily=Helvetica;fontSize=11;fontColor=default;endArrow=none;endFill=0;entryX=0;entryY=0.5;entryDx=0;entryDy=0;exitX=0;exitY=0.75;exitDx=0;exitDy=0;" edge="1" parent="1" source="gwOgM0LgX5GfEIh14Njk-36" target="gwOgM0LgX5GfEIh14Njk-179">
          <mxGeometry relative="1" as="geometry">
            <mxPoint x="185" y="320" as="sourcePoint" />
            <mxPoint x="181" y="859" as="targetPoint" />
            <Array as="points">
              <mxPoint x="110" y="310" />
              <mxPoint x="-20" y="430" />
              <mxPoint x="-20" y="600" />
              <mxPoint x="110" y="600" />
            </Array>
          </mxGeometry>
        </mxCell>
        <mxCell id="gwOgM0LgX5GfEIh14Njk-177" value="M" style="resizable=0;html=1;whiteSpace=wrap;align=left;verticalAlign=bottom;fontFamily=Helvetica;fontSize=11;fontColor=default;" connectable="0" vertex="1" parent="gwOgM0LgX5GfEIh14Njk-176">
          <mxGeometry x="-1" relative="1" as="geometry">
            <mxPoint x="-30" y="20" as="offset" />
          </mxGeometry>
        </mxCell>
        <mxCell id="gwOgM0LgX5GfEIh14Njk-179" value="Learns" style="shape=rhombus;perimeter=rhombusPerimeter;whiteSpace=wrap;html=1;align=center;fontFamily=Helvetica;fontSize=11;fontColor=default;" vertex="1" parent="1">
          <mxGeometry x="120" y="570" width="120" height="60" as="geometry" />
        </mxCell>
        <mxCell id="gwOgM0LgX5GfEIh14Njk-188" value="" style="shape=link;html=1;rounded=0;labelBackgroundColor=default;strokeColor=default;fontFamily=Helvetica;fontSize=11;fontColor=default;endArrow=none;endFill=0;entryX=0.5;entryY=0;entryDx=0;entryDy=0;exitX=1.014;exitY=0.844;exitDx=0;exitDy=0;exitPerimeter=0;" edge="1" parent="1" source="gwOgM0LgX5GfEIh14Njk-36" target="gwOgM0LgX5GfEIh14Njk-164">
          <mxGeometry relative="1" as="geometry">
            <mxPoint x="280" y="320" as="sourcePoint" />
            <mxPoint x="540" y="650" as="targetPoint" />
            <Array as="points">
              <mxPoint x="510" y="314" />
            </Array>
          </mxGeometry>
        </mxCell>
        <mxCell id="gwOgM0LgX5GfEIh14Njk-164" value="Belong" style="shape=rhombus;perimeter=rhombusPerimeter;whiteSpace=wrap;html=1;align=center;fontFamily=Helvetica;fontSize=11;fontColor=default;" vertex="1" parent="1">
          <mxGeometry x="450" y="410" width="120" height="60" as="geometry" />
        </mxCell>
        <mxCell id="gwOgM0LgX5GfEIh14Njk-190" value="" style="shape=link;html=1;rounded=0;labelBackgroundColor=default;strokeColor=default;fontFamily=Helvetica;fontSize=11;fontColor=default;endArrow=none;endFill=0;entryX=0.192;entryY=0.081;entryDx=0;entryDy=0;exitX=0.5;exitY=1;exitDx=0;exitDy=0;entryPerimeter=0;" edge="1" parent="1" source="gwOgM0LgX5GfEIh14Njk-164" target="gwOgM0LgX5GfEIh14Njk-75">
          <mxGeometry relative="1" as="geometry">
            <mxPoint x="470" y="530" as="sourcePoint" />
            <mxPoint x="630" y="530" as="targetPoint" />
          </mxGeometry>
        </mxCell>
        <mxCell id="gwOgM0LgX5GfEIh14Njk-191" value="N" style="resizable=0;html=1;whiteSpace=wrap;align=right;verticalAlign=bottom;fontFamily=Helvetica;fontSize=11;fontColor=default;" connectable="0" vertex="1" parent="gwOgM0LgX5GfEIh14Njk-190">
          <mxGeometry x="1" relative="1" as="geometry" />
        </mxCell>
        <mxCell id="gwOgM0LgX5GfEIh14Njk-213" style="edgeStyle=orthogonalEdgeStyle;shape=connector;rounded=0;orthogonalLoop=1;jettySize=auto;html=1;exitX=1;exitY=0.5;exitDx=0;exitDy=0;entryX=0;entryY=0.5;entryDx=0;entryDy=0;labelBackgroundColor=default;strokeColor=default;fontFamily=Helvetica;fontSize=11;fontColor=default;endArrow=none;endFill=0;" edge="1" parent="1" source="gwOgM0LgX5GfEIh14Njk-192" target="gwOgM0LgX5GfEIh14Njk-195">
          <mxGeometry relative="1" as="geometry" />
        </mxCell>
        <mxCell id="gwOgM0LgX5GfEIh14Njk-214" style="edgeStyle=orthogonalEdgeStyle;shape=connector;rounded=0;orthogonalLoop=1;jettySize=auto;html=1;exitX=0.5;exitY=1;exitDx=0;exitDy=0;entryX=0.5;entryY=0;entryDx=0;entryDy=0;labelBackgroundColor=default;strokeColor=default;fontFamily=Helvetica;fontSize=11;fontColor=default;endArrow=none;endFill=0;" edge="1" parent="1" source="gwOgM0LgX5GfEIh14Njk-192" target="gwOgM0LgX5GfEIh14Njk-198">
          <mxGeometry relative="1" as="geometry" />
        </mxCell>
        <mxCell id="gwOgM0LgX5GfEIh14Njk-192" value="Account" style="rounded=1;arcSize=10;whiteSpace=wrap;html=1;align=center;fontFamily=Helvetica;fontSize=11;fontColor=default;" vertex="1" parent="1">
          <mxGeometry x="610" y="-160" width="100" height="40" as="geometry" />
        </mxCell>
        <mxCell id="gwOgM0LgX5GfEIh14Njk-195" value="Account_id" style="ellipse;whiteSpace=wrap;html=1;align=center;fontStyle=4;fontFamily=Helvetica;fontSize=11;fontColor=default;" vertex="1" parent="1">
          <mxGeometry x="770" y="-160" width="100" height="40" as="geometry" />
        </mxCell>
        <mxCell id="gwOgM0LgX5GfEIh14Njk-212" style="edgeStyle=orthogonalEdgeStyle;shape=connector;rounded=0;orthogonalLoop=1;jettySize=auto;html=1;exitX=0.5;exitY=1;exitDx=0;exitDy=0;labelBackgroundColor=default;strokeColor=default;fontFamily=Helvetica;fontSize=11;fontColor=default;endArrow=none;endFill=0;" edge="1" parent="1" source="gwOgM0LgX5GfEIh14Njk-196" target="gwOgM0LgX5GfEIh14Njk-192">
          <mxGeometry relative="1" as="geometry" />
        </mxCell>
        <mxCell id="gwOgM0LgX5GfEIh14Njk-196" value="Account_type" style="ellipse;whiteSpace=wrap;html=1;" vertex="1" parent="1">
          <mxGeometry x="610" y="-270" width="100" height="60" as="geometry" />
        </mxCell>
        <mxCell id="gwOgM0LgX5GfEIh14Njk-211" style="edgeStyle=orthogonalEdgeStyle;shape=connector;rounded=0;orthogonalLoop=1;jettySize=auto;html=1;exitX=1;exitY=0.5;exitDx=0;exitDy=0;entryX=0;entryY=0.5;entryDx=0;entryDy=0;labelBackgroundColor=default;strokeColor=default;fontFamily=Helvetica;fontSize=11;fontColor=default;endArrow=none;endFill=0;" edge="1" parent="1" source="gwOgM0LgX5GfEIh14Njk-197" target="gwOgM0LgX5GfEIh14Njk-192">
          <mxGeometry relative="1" as="geometry" />
        </mxCell>
        <mxCell id="gwOgM0LgX5GfEIh14Njk-197" value="User" style="ellipse;whiteSpace=wrap;html=1;" vertex="1" parent="1">
          <mxGeometry x="470" y="-170" width="100" height="60" as="geometry" />
        </mxCell>
        <mxCell id="gwOgM0LgX5GfEIh14Njk-198" value="password" style="ellipse;whiteSpace=wrap;html=1;" vertex="1" parent="1">
          <mxGeometry x="590" y="-40" width="100" height="60" as="geometry" />
        </mxCell>
        <mxCell id="gwOgM0LgX5GfEIh14Njk-223" value="Has" style="shape=rhombus;perimeter=rhombusPerimeter;whiteSpace=wrap;html=1;align=center;fontFamily=Helvetica;fontSize=11;fontColor=default;" vertex="1" parent="1">
          <mxGeometry x="450" y="200" width="120" height="60" as="geometry" />
        </mxCell>
        <mxCell id="gwOgM0LgX5GfEIh14Njk-227" value="" style="edgeStyle=orthogonalEdgeStyle;shape=connector;rounded=0;orthogonalLoop=1;jettySize=auto;html=1;exitX=0;exitY=0;exitDx=0;exitDy=0;entryX=1;entryY=1;entryDx=0;entryDy=0;labelBackgroundColor=default;strokeColor=default;fontFamily=Helvetica;fontSize=11;fontColor=default;endArrow=none;endFill=0;" edge="1" parent="1" source="gwOgM0LgX5GfEIh14Njk-101" target="gwOgM0LgX5GfEIh14Njk-226">
          <mxGeometry relative="1" as="geometry">
            <mxPoint x="1010" y="260" as="sourcePoint" />
            <mxPoint x="710" y="-120" as="targetPoint" />
            <Array as="points">
              <mxPoint x="1010" y="140" />
              <mxPoint x="870" y="140" />
            </Array>
          </mxGeometry>
        </mxCell>
        <mxCell id="gwOgM0LgX5GfEIh14Njk-226" value="Has" style="shape=rhombus;perimeter=rhombusPerimeter;whiteSpace=wrap;html=1;align=center;fontFamily=Helvetica;fontSize=11;fontColor=default;" vertex="1" parent="1">
          <mxGeometry x="730" y="50" width="120" height="60" as="geometry" />
        </mxCell>
        <mxCell id="gwOgM0LgX5GfEIh14Njk-237" style="edgeStyle=orthogonalEdgeStyle;shape=connector;rounded=0;orthogonalLoop=1;jettySize=auto;html=1;exitX=1;exitY=0;exitDx=0;exitDy=0;entryX=0;entryY=0.75;entryDx=0;entryDy=0;labelBackgroundColor=default;strokeColor=default;fontFamily=Helvetica;fontSize=11;fontColor=default;endArrow=none;endFill=0;" edge="1" parent="1" source="gwOgM0LgX5GfEIh14Njk-239" target="gwOgM0LgX5GfEIh14Njk-58">
          <mxGeometry relative="1" as="geometry">
            <Array as="points">
              <mxPoint x="-100" y="910" />
              <mxPoint x="150" y="910" />
            </Array>
          </mxGeometry>
        </mxCell>
        <mxCell id="gwOgM0LgX5GfEIh14Njk-266" style="edgeStyle=orthogonalEdgeStyle;shape=connector;rounded=0;orthogonalLoop=1;jettySize=auto;html=1;exitX=1;exitY=1;exitDx=0;exitDy=0;labelBackgroundColor=default;strokeColor=default;fontFamily=Helvetica;fontSize=11;fontColor=default;endArrow=none;endFill=0;" edge="1" parent="1" source="gwOgM0LgX5GfEIh14Njk-228" target="gwOgM0LgX5GfEIh14Njk-265">
          <mxGeometry relative="1" as="geometry" />
        </mxCell>
        <mxCell id="gwOgM0LgX5GfEIh14Njk-228" value="Assessment" style="rounded=1;arcSize=10;whiteSpace=wrap;html=1;align=center;fontFamily=Helvetica;fontSize=11;fontColor=default;" vertex="1" parent="1">
          <mxGeometry x="-210" y="1070" width="100" height="40" as="geometry" />
        </mxCell>
        <mxCell id="gwOgM0LgX5GfEIh14Njk-235" value="" style="edgeStyle=orthogonalEdgeStyle;shape=connector;rounded=0;orthogonalLoop=1;jettySize=auto;html=1;labelBackgroundColor=default;strokeColor=default;fontFamily=Helvetica;fontSize=11;fontColor=default;endArrow=none;endFill=0;" edge="1" parent="1" source="gwOgM0LgX5GfEIh14Njk-230" target="gwOgM0LgX5GfEIh14Njk-228">
          <mxGeometry relative="1" as="geometry" />
        </mxCell>
        <mxCell id="gwOgM0LgX5GfEIh14Njk-230" value="Maximum_score" style="ellipse;whiteSpace=wrap;html=1;align=center;fontFamily=Helvetica;fontSize=11;fontColor=default;" vertex="1" parent="1">
          <mxGeometry x="-50" y="1065" width="110" height="50" as="geometry" />
        </mxCell>
        <mxCell id="gwOgM0LgX5GfEIh14Njk-236" value="" style="edgeStyle=orthogonalEdgeStyle;shape=connector;rounded=0;orthogonalLoop=1;jettySize=auto;html=1;labelBackgroundColor=default;strokeColor=default;fontFamily=Helvetica;fontSize=11;fontColor=default;endArrow=none;endFill=0;" edge="1" parent="1" source="gwOgM0LgX5GfEIh14Njk-231" target="gwOgM0LgX5GfEIh14Njk-228">
          <mxGeometry relative="1" as="geometry" />
        </mxCell>
        <mxCell id="gwOgM0LgX5GfEIh14Njk-231" value="Due_date" style="ellipse;whiteSpace=wrap;html=1;align=center;fontFamily=Helvetica;fontSize=11;fontColor=default;" vertex="1" parent="1">
          <mxGeometry x="-215" y="1160" width="110" height="50" as="geometry" />
        </mxCell>
        <mxCell id="gwOgM0LgX5GfEIh14Njk-233" style="edgeStyle=orthogonalEdgeStyle;shape=connector;rounded=0;orthogonalLoop=1;jettySize=auto;html=1;exitX=1;exitY=0.5;exitDx=0;exitDy=0;entryX=-0.026;entryY=0.591;entryDx=0;entryDy=0;entryPerimeter=0;labelBackgroundColor=default;strokeColor=default;fontFamily=Helvetica;fontSize=11;fontColor=default;endArrow=none;endFill=0;" edge="1" parent="1" source="gwOgM0LgX5GfEIh14Njk-232" target="gwOgM0LgX5GfEIh14Njk-228">
          <mxGeometry relative="1" as="geometry" />
        </mxCell>
        <mxCell id="gwOgM0LgX5GfEIh14Njk-232" value="Assessment_id" style="ellipse;whiteSpace=wrap;html=1;align=center;fontStyle=4;fontFamily=Helvetica;fontSize=11;fontColor=default;" vertex="1" parent="1">
          <mxGeometry x="-330" y="1070" width="100" height="40" as="geometry" />
        </mxCell>
        <mxCell id="gwOgM0LgX5GfEIh14Njk-238" value="" style="edgeStyle=orthogonalEdgeStyle;shape=connector;rounded=0;orthogonalLoop=1;jettySize=auto;html=1;exitX=1;exitY=0;exitDx=0;exitDy=0;entryX=0;entryY=0.75;entryDx=0;entryDy=0;labelBackgroundColor=default;strokeColor=default;fontFamily=Helvetica;fontSize=11;fontColor=default;endArrow=none;endFill=0;" edge="1" parent="1" source="gwOgM0LgX5GfEIh14Njk-228" target="gwOgM0LgX5GfEIh14Njk-239">
          <mxGeometry relative="1" as="geometry">
            <mxPoint x="-110" y="1070" as="sourcePoint" />
            <mxPoint x="150" y="890" as="targetPoint" />
            <Array as="points">
              <mxPoint x="-100" y="1070" />
            </Array>
          </mxGeometry>
        </mxCell>
        <mxCell id="gwOgM0LgX5GfEIh14Njk-239" value="Include" style="shape=rhombus;perimeter=rhombusPerimeter;whiteSpace=wrap;html=1;align=center;fontFamily=Helvetica;fontSize=11;fontColor=default;" vertex="1" parent="1">
          <mxGeometry x="-160" y="910" width="120" height="60" as="geometry" />
        </mxCell>
        <mxCell id="gwOgM0LgX5GfEIh14Njk-240" value="Submission" style="rounded=1;arcSize=10;whiteSpace=wrap;html=1;align=center;fontFamily=Helvetica;fontSize=11;fontColor=default;" vertex="1" parent="1">
          <mxGeometry x="-420" y="530" width="100" height="40" as="geometry" />
        </mxCell>
        <mxCell id="gwOgM0LgX5GfEIh14Njk-243" value="" style="edgeStyle=orthogonalEdgeStyle;shape=connector;rounded=0;orthogonalLoop=1;jettySize=auto;html=1;labelBackgroundColor=default;strokeColor=default;fontFamily=Helvetica;fontSize=11;fontColor=default;endArrow=none;endFill=0;" edge="1" parent="1" source="gwOgM0LgX5GfEIh14Njk-244" target="gwOgM0LgX5GfEIh14Njk-240">
          <mxGeometry relative="1" as="geometry" />
        </mxCell>
        <mxCell id="gwOgM0LgX5GfEIh14Njk-244" value="score" style="ellipse;whiteSpace=wrap;html=1;align=center;fontFamily=Helvetica;fontSize=11;fontColor=default;" vertex="1" parent="1">
          <mxGeometry x="-250" y="525" width="110" height="50" as="geometry" />
        </mxCell>
        <mxCell id="gwOgM0LgX5GfEIh14Njk-245" value="" style="edgeStyle=orthogonalEdgeStyle;shape=connector;rounded=0;orthogonalLoop=1;jettySize=auto;html=1;labelBackgroundColor=default;strokeColor=default;fontFamily=Helvetica;fontSize=11;fontColor=default;endArrow=none;endFill=0;" edge="1" parent="1" source="gwOgM0LgX5GfEIh14Njk-246" target="gwOgM0LgX5GfEIh14Njk-240">
          <mxGeometry relative="1" as="geometry" />
        </mxCell>
        <mxCell id="gwOgM0LgX5GfEIh14Njk-246" value="submission_date" style="ellipse;whiteSpace=wrap;html=1;align=center;fontFamily=Helvetica;fontSize=11;fontColor=default;" vertex="1" parent="1">
          <mxGeometry x="-425" y="350" width="110" height="50" as="geometry" />
        </mxCell>
        <mxCell id="gwOgM0LgX5GfEIh14Njk-247" style="edgeStyle=orthogonalEdgeStyle;shape=connector;rounded=0;orthogonalLoop=1;jettySize=auto;html=1;exitX=1;exitY=0.5;exitDx=0;exitDy=0;entryX=-0.026;entryY=0.591;entryDx=0;entryDy=0;entryPerimeter=0;labelBackgroundColor=default;strokeColor=default;fontFamily=Helvetica;fontSize=11;fontColor=default;endArrow=none;endFill=0;" edge="1" parent="1" source="gwOgM0LgX5GfEIh14Njk-248" target="gwOgM0LgX5GfEIh14Njk-240">
          <mxGeometry relative="1" as="geometry" />
        </mxCell>
        <mxCell id="gwOgM0LgX5GfEIh14Njk-248" value="Submission_id" style="ellipse;whiteSpace=wrap;html=1;align=center;fontStyle=4;fontFamily=Helvetica;fontSize=11;fontColor=default;" vertex="1" parent="1">
          <mxGeometry x="-560" y="530" width="100" height="40" as="geometry" />
        </mxCell>
        <mxCell id="gwOgM0LgX5GfEIh14Njk-252" value="Relationship" style="shape=rhombus;perimeter=rhombusPerimeter;whiteSpace=wrap;html=1;align=center;fontFamily=Helvetica;fontSize=11;fontColor=default;" vertex="1" parent="1">
          <mxGeometry x="-180" y="360" width="120" height="60" as="geometry" />
        </mxCell>
        <mxCell id="gwOgM0LgX5GfEIh14Njk-253" value="" style="shape=link;html=1;rounded=0;labelBackgroundColor=default;strokeColor=default;fontFamily=Helvetica;fontSize=11;fontColor=default;endArrow=none;endFill=0;entryX=0;entryY=1;entryDx=0;entryDy=0;exitX=0.902;exitY=0.001;exitDx=0;exitDy=0;exitPerimeter=0;" edge="1" parent="1" source="gwOgM0LgX5GfEIh14Njk-240" target="gwOgM0LgX5GfEIh14Njk-252">
          <mxGeometry relative="1" as="geometry">
            <mxPoint x="-280" y="460" as="sourcePoint" />
            <mxPoint x="-120" y="460" as="targetPoint" />
          </mxGeometry>
        </mxCell>
        <mxCell id="gwOgM0LgX5GfEIh14Njk-254" value="N" style="resizable=0;html=1;whiteSpace=wrap;align=right;verticalAlign=bottom;fontFamily=Helvetica;fontSize=11;fontColor=default;" connectable="0" vertex="1" parent="gwOgM0LgX5GfEIh14Njk-253">
          <mxGeometry x="1" relative="1" as="geometry">
            <mxPoint x="-20" y="15" as="offset" />
          </mxGeometry>
        </mxCell>
        <mxCell id="gwOgM0LgX5GfEIh14Njk-255" value="" style="endArrow=none;html=1;rounded=0;labelBackgroundColor=default;strokeColor=default;fontFamily=Helvetica;fontSize=11;fontColor=default;shape=connector;exitX=1;exitY=0;exitDx=0;exitDy=0;" edge="1" parent="1" source="gwOgM0LgX5GfEIh14Njk-252">
          <mxGeometry relative="1" as="geometry">
            <mxPoint x="-150" y="360" as="sourcePoint" />
            <mxPoint x="180" y="300" as="targetPoint" />
            <Array as="points">
              <mxPoint x="-40" y="300" />
            </Array>
          </mxGeometry>
        </mxCell>
        <mxCell id="gwOgM0LgX5GfEIh14Njk-256" value="1" style="resizable=0;html=1;whiteSpace=wrap;align=right;verticalAlign=bottom;fontFamily=Helvetica;fontSize=11;fontColor=default;" connectable="0" vertex="1" parent="gwOgM0LgX5GfEIh14Njk-255">
          <mxGeometry x="1" relative="1" as="geometry">
            <mxPoint x="-210" y="20" as="offset" />
          </mxGeometry>
        </mxCell>
        <mxCell id="gwOgM0LgX5GfEIh14Njk-265" value="Title" style="ellipse;whiteSpace=wrap;html=1;align=center;fontFamily=Helvetica;fontSize=11;fontColor=default;" vertex="1" parent="1">
          <mxGeometry x="-80" y="1160" width="100" height="40" as="geometry" />
        </mxCell>
        <mxCell id="gwOgM0LgX5GfEIh14Njk-267" style="edgeStyle=orthogonalEdgeStyle;shape=connector;rounded=0;orthogonalLoop=1;jettySize=auto;html=1;exitX=0.5;exitY=1;exitDx=0;exitDy=0;entryX=0.148;entryY=1.005;entryDx=0;entryDy=0;entryPerimeter=0;labelBackgroundColor=default;strokeColor=default;fontFamily=Helvetica;fontSize=11;fontColor=default;endArrow=none;endFill=0;" edge="1" parent="1" source="gwOgM0LgX5GfEIh14Njk-88" target="gwOgM0LgX5GfEIh14Njk-88">
          <mxGeometry relative="1" as="geometry" />
        </mxCell>
      </root>
    </mxGraphModel>
  </diagram>
</mxfile>
